<svg width="8" height="8" viewBox="0 0 8 8" fill="none" xmlns="http://www.w3.org/2000/svg">
<path d="M7.34471 0.660599C7.13766 0.453546 6.80319 0.453546 6.59613 0.660599L4 3.25142L1.40387 0.65529C1.19681 0.448237 0.862344 0.448237 0.65529 0.65529C0.448237 0.862344 0.448237 1.19681 0.65529 1.40387L3.25142 4L0.65529 6.59613C0.448237 6.80319 0.448237 7.13766 0.65529 7.34471C0.862344 7.55176 1.19681 7.55176 1.40387 7.34471L4 4.74858L6.59613 7.34471C6.80319 7.55176 7.13766 7.55176 7.34471 7.34471C7.55176 7.13766 7.55176 6.80319 7.34471 6.59613L4.74858 4L7.34471 1.40387C7.54645 1.20212 7.54645 0.862344 7.34471 0.660599V0.660599Z" fill="#596696"/>
</svg>
