<svg width="17" height="10" viewBox="0 0 17 10" fill="none" xmlns="http://www.w3.org/2000/svg">
<path d="M12.0417 0.708333L13.2417 1.90833L9.175 5.975L6.43333 3.23333C6.10833 2.90833 5.58333 2.90833 5.25833 3.23333L0.258334 8.24167C-0.0666664 8.56667 -0.0666664 9.09167 0.258334 9.41667C0.583334 9.74167 1.10833 9.74167 1.43333 9.41667L5.84167 5L8.58333 7.74167C8.90833 8.06667 9.43333 8.06667 9.75833 7.74167L14.4167 3.09167L15.6167 4.29167C15.875 4.55 16.325 4.36667 16.325 4V0.416667C16.3333 0.183333 16.15 0 15.9167 0H12.3417C11.9667 0 11.7833 0.45 12.0417 0.708333V0.708333Z" fill="#74E4A2"/>
</svg>
