<svg width="18" height="18" viewBox="0 0 18 18" fill="none" xmlns="http://www.w3.org/2000/svg">
<path d="M8.49375 12.75H9.61875V8.25H8.49375V12.75ZM9 6.8625C9.175 6.8625 9.32187 6.80625 9.44062 6.69375C9.55937 6.58125 9.61875 6.4375 9.61875 6.2625C9.61875 6.0875 9.55937 5.9375 9.44062 5.8125C9.32187 5.6875 9.175 5.625 9 5.625C8.825 5.625 8.67813 5.6875 8.55938 5.8125C8.44063 5.9375 8.38125 6.0875 8.38125 6.2625C8.38125 6.4375 8.44063 6.58125 8.55938 6.69375C8.67813 6.80625 8.825 6.8625 9 6.8625ZM9 16.5C7.975 16.5 7.00625 16.3031 6.09375 15.9094C5.18125 15.5156 4.38438 14.9781 3.70312 14.2969C3.02188 13.6156 2.48437 12.8188 2.09062 11.9062C1.69687 10.9937 1.5 10.0188 1.5 8.98125C1.5 7.95625 1.69687 6.9875 2.09062 6.075C2.48437 5.1625 3.02188 4.36875 3.70312 3.69375C4.38438 3.01875 5.18125 2.48437 6.09375 2.09062C7.00625 1.69687 7.98125 1.5 9.01875 1.5C10.0437 1.5 11.0125 1.69687 11.925 2.09062C12.8375 2.48437 13.6313 3.01875 14.3063 3.69375C14.9813 4.36875 15.5156 5.1625 15.9094 6.075C16.3031 6.9875 16.5 7.9625 16.5 9C16.5 10.025 16.3031 10.9937 15.9094 11.9062C15.5156 12.8188 14.9813 13.6156 14.3063 14.2969C13.6313 14.9781 12.8375 15.5156 11.925 15.9094C11.0125 16.3031 10.0375 16.5 9 16.5ZM9.01875 15.375C10.7812 15.375 12.2812 14.7531 13.5187 13.5094C14.7562 12.2656 15.375 10.7563 15.375 8.98125C15.375 7.21875 14.7562 5.71875 13.5187 4.48125C12.2812 3.24375 10.775 2.625 9 2.625C7.2375 2.625 5.73438 3.24375 4.49063 4.48125C3.24688 5.71875 2.625 7.225 2.625 9C2.625 10.7625 3.24688 12.2656 4.49063 13.5094C5.73438 14.7531 7.24375 15.375 9.01875 15.375Z" fill="#8894BD"/>
</svg>
