<svg width="18" height="18" viewBox="0 0 18 18" fill="none" xmlns="http://www.w3.org/2000/svg">
<g clip-path="url(#clip0_102_3254)">
<path d="M17.7297 11.1771C16.5277 15.9986 11.6443 18.9329 6.82228 17.7306C2.00226 16.5285 -0.931999 11.6449 0.270544 6.82378C1.47203 2.00177 6.3554 -0.932704 11.176 0.269311C15.9977 1.47133 18.9317 6.35553 17.7296 11.1772L17.7297 11.1771H17.7297Z" fill="#F7931A"/>
<path d="M12.9686 7.71772C13.1477 6.52002 12.2359 5.87621 10.989 5.44672L11.3935 3.82433L10.4059 3.57824L10.0121 5.15792C9.75249 5.09316 9.48586 5.03215 9.22086 4.97166L9.61748 3.38155L8.6305 3.13547L8.22578 4.75733C8.01093 4.70842 7.7999 4.66007 7.59517 4.60913L7.59631 4.60402L6.23439 4.26393L5.97167 5.31875C5.97167 5.31875 6.70439 5.48671 6.68895 5.49705C7.08887 5.59686 7.16119 5.8616 7.14918 6.07144L6.68842 7.91973C6.71596 7.92672 6.75168 7.93684 6.7911 7.95268C6.75815 7.94449 6.72309 7.93556 6.6867 7.92685L6.04087 10.516C5.992 10.6375 5.86794 10.8199 5.58833 10.7506C5.59823 10.765 4.87053 10.5715 4.87053 10.5715L4.3802 11.702L5.66541 12.0224C5.9045 12.0823 6.13879 12.1451 6.36953 12.2041L5.96085 13.8451L6.94731 14.0912L7.35203 12.4676C7.62152 12.5407 7.88304 12.6082 8.13907 12.6718L7.73572 14.2878L8.72336 14.5338L9.132 12.8959C10.8161 13.2146 12.0824 13.0861 12.6154 11.5629C13.0448 10.3365 12.594 9.62914 11.708 9.16784C12.3533 9.01902 12.8394 8.5946 12.969 7.71785L12.9686 7.71763L12.9686 7.71772ZM10.7122 10.8818C10.407 12.1082 8.34209 11.4453 7.67263 11.279L8.21496 9.10498C8.88437 9.2721 11.0311 9.60283 10.7122 10.8818H10.7122ZM11.0176 7.69995C10.7392 8.81548 9.02057 8.24874 8.46307 8.10977L8.95476 6.13804C9.51226 6.27701 11.3076 6.53638 11.0177 7.69995H11.0176Z" fill="white"/>
</g>
<defs>
<clipPath id="clip0_102_3254">
<rect width="18" height="18" fill="white"/>
</clipPath>
</defs>
</svg>
