<svg width="18" height="18" viewBox="0 0 18 18" fill="none" xmlns="http://www.w3.org/2000/svg">
<g clip-path="url(#clip0_102_3298)">
<path d="M9 0C13.971 0 18 4.02979 18 9C18 13.971 13.971 18 9 18C4.02979 18 0 13.9706 0 9C0 4.02979 4.02979 0 9 0Z" fill="#F5AC37"/>
<path d="M9.33169 9.63546H12.7515C12.8244 9.63546 12.8589 9.63547 12.8641 9.53988C12.8921 9.19199 12.8921 8.84206 12.8641 8.49376C12.8641 8.42612 12.8305 8.39818 12.7572 8.39818H5.95112C5.86688 8.39818 5.8442 8.42612 5.8442 8.5051V9.50627C5.8442 9.63546 5.8442 9.63546 5.97907 9.63546H9.33169ZM12.4822 7.22812C12.4919 7.20261 12.4919 7.17466 12.4822 7.14955C12.4251 7.02521 12.3575 6.90655 12.2789 6.79517C12.1606 6.60482 12.0213 6.42945 11.8626 6.27191C11.7876 6.17673 11.701 6.09127 11.6038 6.01878C11.117 5.60446 10.5382 5.31124 9.91611 5.16381C9.60224 5.09334 9.28147 5.05973 8.9599 5.06256H5.93938C5.85514 5.06256 5.8438 5.09618 5.8438 5.16948V7.16615C5.8438 7.2504 5.8438 7.27308 5.95072 7.27308H12.4417C12.4417 7.27308 12.498 7.26174 12.5094 7.22812H12.4818H12.4822ZM12.4822 10.8055C12.3866 10.795 12.2902 10.795 12.1947 10.8055H5.95679C5.87255 10.8055 5.8442 10.8055 5.8442 10.9181V12.8702C5.8442 12.9601 5.8442 12.9828 5.95679 12.9828H8.83678C8.97448 12.9934 9.11218 12.9836 9.24705 12.9549C9.66501 12.9249 10.0761 12.8342 10.4681 12.6847C10.6107 12.6353 10.7484 12.5709 10.8784 12.4936H10.9177C11.5928 12.1424 12.1412 11.5908 12.4871 10.9137C12.4871 10.9137 12.5264 10.8286 12.4822 10.8063V10.8055ZM4.71384 13.9949V13.9613V12.6507V12.2064V10.8845C4.71384 10.8112 4.71384 10.8003 4.62393 10.8003H3.40324C3.33561 10.8003 3.30766 10.8003 3.30766 10.7103V9.64154H4.61259C4.68549 9.64154 4.71384 9.64154 4.71384 9.54596V8.48849C4.71384 8.42086 4.71384 8.40425 4.62393 8.40425H3.40324C3.33561 8.40425 3.30766 8.40425 3.30766 8.31434V7.32451C3.30766 7.26255 3.30766 7.24594 3.39757 7.24594H4.60692C4.69116 7.24594 4.71384 7.24594 4.71384 7.13902V4.10716C4.71384 4.01725 4.71384 3.99457 4.82643 3.99457H9.04495C9.35113 4.00672 9.65529 4.04033 9.95621 4.09582C10.5763 4.21044 11.172 4.43197 11.7168 4.74828C12.078 4.96091 12.4105 5.21768 12.7066 5.51333C12.9293 5.74459 13.1302 5.99488 13.3084 6.26138C13.4854 6.53151 13.6324 6.82028 13.7479 7.12201C13.762 7.20058 13.8374 7.25364 13.9159 7.24027H14.9228C15.052 7.24027 15.052 7.24027 15.0576 7.3642V8.2868C15.0576 8.37671 15.024 8.39939 14.9337 8.39939H14.1573C14.0787 8.39939 14.0561 8.39939 14.0617 8.50064C14.0925 8.84328 14.0925 9.18713 14.0617 9.52976C14.0617 9.62534 14.0617 9.63668 14.1691 9.63668H15.0572C15.0965 9.6873 15.0572 9.73793 15.0572 9.78896C15.0629 9.85417 15.0629 9.92018 15.0572 9.98539V10.6662C15.0572 10.7618 15.0293 10.7901 14.9446 10.7901H13.8815C13.8074 10.776 13.7353 10.8233 13.7183 10.8971C13.4652 11.5552 13.0602 12.1453 12.5369 12.6183C12.3457 12.7904 12.1449 12.9524 11.9351 13.1019C11.7099 13.2315 11.4908 13.3664 11.2599 13.4733C10.8351 13.6644 10.3896 13.8054 9.93231 13.8949C9.49815 13.9727 9.05791 14.0079 8.61605 14.0018H4.71222V13.9961L4.71384 13.9949Z" fill="#FEFEFD"/>
</g>
<defs>
<clipPath id="clip0_102_3298">
<rect width="18" height="18" fill="white"/>
</clipPath>
</defs>
</svg>
