<svg width="18" height="18" viewBox="0 0 18 18" fill="none" xmlns="http://www.w3.org/2000/svg">
<g clip-path="url(#clip0_102_3280)">
<circle cx="9" cy="9" r="9" fill="#50AF95"/>
<path fill-rule="evenodd" clip-rule="evenodd" d="M10.1445 9.74113C10.0806 9.74564 9.7503 9.76419 9.01358 9.76419C8.42762 9.76419 8.01158 9.74765 7.86563 9.74113C5.60114 9.64741 3.91089 9.27651 3.91089 8.83244C3.91089 8.38837 5.60114 8.01798 7.86563 7.92275V9.37174C8.01371 9.38177 8.43774 9.40532 9.02371 9.40532C9.72686 9.40532 10.079 9.37776 10.1424 9.37224V7.92375C12.4021 8.01848 14.0886 8.38937 14.0886 8.83244C14.0886 9.27551 12.4026 9.6464 10.1424 9.74063L10.1445 9.74113ZM10.1445 7.77389V6.47727H13.2981V4.5H4.71207V6.47727H7.86509V7.77339C5.30229 7.88416 3.375 8.36181 3.375 8.93419C3.375 9.50657 5.30229 9.98372 7.86509 10.095V14.25H10.144V10.0935C12.7009 9.98272 14.625 9.50556 14.625 8.93369C14.625 8.36181 12.703 7.88516 10.1445 7.77389Z" fill="white"/>
</g>
<defs>
<clipPath id="clip0_102_3280">
<rect width="18" height="18" fill="white"/>
</clipPath>
</defs>
</svg>
